# xmcd
#
# Track frame offsets:
#	150
#	18194
#	37683
#	56288
#	145607
#	178162
#	199731
#
# Disc length: 3534 seconds
#
# Revision: 1
# Processed by: cddbd v1.5.1PL0 Copyright (c) Steve Scherf et al.
# Submitted via: audiograbber 1.82.01
#
DISCID=4e0dcc07
DTITLE=Johnny Winter And - 1970-09-25 - The Aragon Ballroom, Chicago IL
DYEAR=1900
DGENRE=
TTITLE0=Johnny Winter And - Guess I'll go away
TTITLE1=Johnny Winter And - Good Morning Little School Girl
TTITLE2=Johnny Winter And - Rock and Roll Hoochie Koo
TTITLE3=Johnny Winter And - It's My Own Fault
TTITLE4=Johnny Winter And - Highway 61
TTITLE5=Johnny Winter And - Johnny B.Goode
TTITLE6=Johnny Winter And - Medley- Mean town Blues-Walking Blues
EXTD=
EXTT0=
EXTT1=
EXTT2=
EXTT3=
EXTT4=
EXTT5=
EXTT6=
PLAYORDER=
